<?xml version="1.0" encoding="utf-8"?>
<!-- Generator: Adobe Illustrator 16.0.0, SVG Export Plug-In . SVG Version: 6.00 Build 0)  -->
<!DOCTYPE svg PUBLIC "-//W3C//DTD SVG 1.1//EN" "http://www.w3.org/Graphics/SVG/1.1/DTD/svg11.dtd">
<svg version="1.1" id="Layer_2" xmlns="http://www.w3.org/2000/svg" xmlns:xlink="http://www.w3.org/1999/xlink" x="0px" y="0px"
	 width="160px" height="160px" viewBox="0 0 160 160" style="enable-background:new 0 0 160 160;" xml:space="preserve">
<style type="text/css">
<![CDATA[
	.st0{fill:#FFFFFF;}
]]>
</style>
<path class="st0" d="M107.4,76.6H105v-3.2c0-6.6-5.4-12-12-12h-2.4v-4H48.2v39.2h6.4c0,4.4,3.6,8,8,8s8-3.6,8-8h19.2h0.8
	c0,4.4,3.6,8,8,8s8-3.6,8-8h0.8c3.5,0,6.4-2.9,6.4-6.4V83C113.8,79.5,111,76.6,107.4,76.6z M62.6,99.8c-1.8,0-3.2-1.4-3.2-3.2
	c0-1.8,1.4-3.2,3.2-3.2c1.8,0,3.2,1.4,3.2,3.2C65.8,98.4,64.4,99.8,62.6,99.8z M90.6,76.6V66.2H93c4,0,7.2,3.2,7.2,7.2v3.2H90.6z
	 M98.6,99.8c-1.8,0-3.2-1.4-3.2-3.2c0-1.8,1.4-3.2,3.2-3.2c1.8,0,3.2,1.4,3.2,3.2C101.8,98.4,100.4,99.8,98.6,99.8z"/>
<g>
	<polygon class="st0" points="32,42.9 34.1,49.4 40.9,49.4 35.4,53.5 37.5,60 32,56 26.4,60 28.5,53.5 23,49.4 29.8,49.4 	"/>
	<polygon class="st0" points="51.8,22.7 53.9,29.3 60.8,29.3 55.2,33.3 57.3,39.8 51.8,35.8 46.2,39.8 48.3,33.3 42.8,29.3 
		49.7,29.3 	"/>
	<polygon class="st0" points="80,15.1 82.1,21.7 89,21.7 83.4,25.7 85.6,32.2 80,28.2 74.5,32.2 76.6,25.7 71,21.7 77.9,21.7 	"/>
	<polygon class="st0" points="107.9,22.8 110,29.3 116.9,29.3 111.4,33.3 113.5,39.9 107.9,35.8 102.4,39.9 104.5,33.3 99,29.3 
		105.8,29.3 	"/>
	<polygon class="st0" points="128.5,43.3 130.6,49.9 137.5,49.9 131.9,53.9 134,60.4 128.5,56.4 122.9,60.4 125.1,53.9 119.5,49.9 
		126.4,49.9 	"/>
	<polygon class="st0" points="136.1,71.6 138.2,78.1 145.1,78.1 139.5,82.1 141.6,88.6 136.1,84.6 130.6,88.6 132.7,82.1 
		127.1,78.1 134,78.1 	"/>
	<polygon class="st0" points="128.5,99.9 130.6,106.4 137.4,106.4 131.9,110.5 134,117 128.5,112.9 122.9,117 125,110.5 
		119.5,106.4 126.3,106.4 	"/>
	<polygon class="st0" points="107.9,120.3 110,126.8 116.9,126.8 111.3,130.9 113.5,137.4 107.9,133.4 102.4,137.4 104.5,130.9 
		98.9,126.8 105.8,126.8 	"/>
	<polygon class="st0" points="80.1,127.8 82.2,134.3 89.1,134.3 83.5,138.3 85.6,144.9 80.1,140.8 74.5,144.9 76.7,138.3 
		71.1,134.3 78,134.3 	"/>
	<polygon class="st0" points="51.8,120.2 54,126.7 60.8,126.7 55.3,130.7 57.4,137.2 51.8,133.2 46.3,137.2 48.4,130.7 42.9,126.7 
		49.7,126.7 	"/>
	<polygon class="st0" points="31.7,99.8 33.8,106.3 40.7,106.3 35.1,110.3 37.2,116.8 31.7,112.8 26.2,116.8 28.3,110.3 22.7,106.3 
		29.6,106.3 	"/>
	<polygon class="st0" points="24,71.1 26.1,77.6 33,77.6 27.4,81.7 29.6,88.3 24,84.2 18.4,88.3 20.5,81.7 14.9,77.6 21.8,77.6 	"/>
</g>
</svg>
