<?xml version="1.0" encoding="utf-8"?>
<!-- Generator: Adobe Illustrator 16.0.0, SVG Export Plug-In . SVG Version: 6.00 Build 0)  -->
<!DOCTYPE svg PUBLIC "-//W3C//DTD SVG 1.1//EN" "http://www.w3.org/Graphics/SVG/1.1/DTD/svg11.dtd">
<svg version="1.1" id="Layer_2" xmlns="http://www.w3.org/2000/svg" xmlns:xlink="http://www.w3.org/1999/xlink" x="0px" y="0px"
	 width="160px" height="160px" viewBox="0 0 160 160" style="enable-background:new 0 0 160 160;" xml:space="preserve">
<style type="text/css">
<![CDATA[
	.st0{fill:#FFFFFF;}
]]>
</style>
<path class="st0" d="M116.2,43.6c-0.3,0.2-0.6,0.4-0.9,0.6l-16.8,12l-8.7-5.3c1.6-1.5,2.1-3.9,0.9-5.9c-1.3-2.2-4.2-3-6.4-1.7
	l-3.5,2.1l-4.9-3c1.1-1.5,1.2-3.5,0.3-5.1c-1.3-2.2-4.2-3-6.4-1.7l-2.5,1.5L60,32.7c-3.7-2.2-8.5-2.4-12.5-0.1l31.4,37.6L49.8,91
	l-15.5-7.3l-8,4.7l12.4,10.5l-4.4,3.1l1.4,2.4l1.4,2.4l4.6-2.2l3,15.1l8-4.7L53.8,99l32.9-15.6l17.6,45.8c4-2.3,6.1-6.6,6-10.9
	l-0.3-8.6l2.5-1.5c2.2-1.3,3-4.2,1.7-6.4c-1-1.7-2.8-2.5-4.6-2.3l-0.2-5.7l3.5-2.1c2.2-1.3,3-4.2,1.7-6.4c-1.2-2-3.5-2.8-5.6-2
	L108.5,73l18.6-8.8c0.3-0.1,0.6-0.3,0.9-0.5c5.6-3.3,7.4-10.4,4.1-16C128.9,42.2,121.8,40.3,116.2,43.6z"/>
<path class="st0" d="M64.8,63.3c-0.7-1.2-2.3-1.6-3.5-0.9C60.1,63.1,41.5,77,41.5,77s21.2-9.5,22.4-10.2
	C65.1,66.1,65.5,64.5,64.8,63.3z"/>
<path class="st0" d="M54.5,51.7c-0.7-1.2-2.3-1.6-3.5-0.9c-1.2,0.7-12.9,10.5-12.9,10.5s14.3-5.4,15.5-6.2
	C54.8,54.5,55.2,52.9,54.5,51.7z"/>
<path class="st0" d="M86.1,99.5c0.7,1.2,0.3,2.8-0.9,3.5c-1.2,0.7-22.4,10.2-22.4,10.2s18.6-13.9,19.8-14.6
	C83.8,97.8,85.3,98.3,86.1,99.5z"/>
<path class="st0" d="M90.9,113.7c0.7,1.2,0.3,2.8-0.9,3.5c-1.2,0.7-15.5,6.2-15.5,6.2s11.7-9.8,12.9-10.5
	C88.7,112.1,90.2,112.5,90.9,113.7z"/>
</svg>
