<?xml version="1.0" encoding="utf-8"?>
<!-- Generator: Adobe Illustrator 16.0.0, SVG Export Plug-In . SVG Version: 6.00 Build 0)  -->
<!DOCTYPE svg PUBLIC "-//W3C//DTD SVG 1.1//EN" "http://www.w3.org/Graphics/SVG/1.1/DTD/svg11.dtd">
<svg version="1.1" id="Layer_2" xmlns="http://www.w3.org/2000/svg" xmlns:xlink="http://www.w3.org/1999/xlink" x="0px" y="0px"
	 width="24px" height="24px" viewBox="0 0 24 24" style="enable-background:new 0 0 24 24;" xml:space="preserve">
<style type="text/css">
<![CDATA[
	.st0{fill:#BC8339;}
]]>
</style>
<path class="st0" d="M22,16.4"/>
<circle class="st0" cx="20" cy="22" r="2"/>
<circle class="st0" cx="8" cy="22" r="2"/>
<path class="st0" d="M22,4h-6h-3H7.7C6.8,1.7,4.6,0,2,0C0.9,0,0,0.9,0,2s0.9,2,2,2c1,0,1.8,0.7,2,1.6L6,16.4C6.2,17.3,7,18,8,18h5h7
	c1,0,1.8-0.7,2-1.6l2-10c0-0.1,0-0.3,0-0.4C24,4.9,23.1,4,22,4z"/>
</svg>
