<?xml version="1.0" encoding="utf-8"?>
<!-- Generator: Adobe Illustrator 16.0.0, SVG Export Plug-In . SVG Version: 6.00 Build 0)  -->
<!DOCTYPE svg PUBLIC "-//W3C//DTD SVG 1.1//EN" "http://www.w3.org/Graphics/SVG/1.1/DTD/svg11.dtd">
<svg version="1.1" id="Layer_2" xmlns="http://www.w3.org/2000/svg" xmlns:xlink="http://www.w3.org/1999/xlink" x="0px" y="0px"
	 width="24px" height="24px" viewBox="0 0 24 24" style="enable-background:new 0 0 24 24;" xml:space="preserve">
<style type="text/css">
<![CDATA[
	.st0{fill:#BC8339;}
]]>
</style>
<path class="st0" d="M23.3,19.9l-5.4-5.4c0.8-1.4,1.3-3.1,1.3-4.9c0-5.3-4.3-9.6-9.6-9.6C4.3,0,0,4.3,0,9.6s4.3,9.6,9.6,9.6
	c1.8,0,3.4-0.5,4.9-1.3l5.4,5.4c0.5,0.5,1.1,0.7,1.7,0.7c0.6,0,1.2-0.2,1.7-0.7C24.2,22.4,24.2,20.8,23.3,19.9z M9.6,15.6
	c-3.3,0-6-2.7-6-6s2.7-6,6-6c3.3,0,6,2.7,6,6S12.9,15.6,9.6,15.6z"/>
</svg>
