<?xml version="1.0" encoding="utf-8"?>
<!-- Generator: Adobe Illustrator 16.0.0, SVG Export Plug-In . SVG Version: 6.00 Build 0)  -->
<!DOCTYPE svg PUBLIC "-//W3C//DTD SVG 1.1//EN" "http://www.w3.org/Graphics/SVG/1.1/DTD/svg11.dtd">
<svg version="1.1" id="Layer_2" xmlns="http://www.w3.org/2000/svg" xmlns:xlink="http://www.w3.org/1999/xlink" x="0px" y="0px"
	 width="160px" height="160px" viewBox="0 0 160 160" style="enable-background:new 0 0 160 160;" xml:space="preserve">
<style type="text/css">
<![CDATA[
	.st0{fill:#FFFFFF;stroke:#FFFFFF;stroke-width:3;stroke-linecap:round;stroke-miterlimit:10;}
	.st1{fill:#FFFFFF;}
]]>
</style>
<g>
	<path class="st1" d="M64,99.3c-8.4,0-14.6-5.1-14.6-9.8c0-3.5,1.8-6,5.2-6c2.9,0,4.3,1.6,4.3,3.9c0,1.1-0.5,1.4-0.5,2.4
		c0,1.2,1.6,2.7,3.7,2.7c2.6,0,4-1.9,4-4.8c0-2-1.6-3.9-3.9-3.9h-1.6v-3.7h1.6c2.4,0,3.5-1.2,3.5-3.2c0-2.4-1.3-4.1-3.6-4.1
		c-2,0-3,1.1-3,2.2c0,1.2,0.3,0.9,0.3,2.4c0,1.7-1.2,3.4-4.1,3.4c-3.2,0-4.7-2.6-4.7-5.6c0-4.7,5.1-9.3,13.5-9.3
		c8.3,0,14.5,3.8,14.5,9.8c0,2.4-2.1,5.3-5.6,6.4c3.7,0.8,6.1,4,6.1,7.4C79,95.5,72.3,99.3,64,99.3z"/>
	<path class="st1" d="M96.4,99.3c-8,0-15.8-6.3-15.8-16.7S88.4,66,96.4,66c8.1,0,15.8,6.3,15.8,16.7S104.5,99.3,96.4,99.3z
		 M99.5,78.6c0-2.7-0.8-4.7-3-4.7c-2.1,0-3,2-3,4.7v8.2c0,2.7,0.9,4.7,3,4.7c2.2,0,3-2,3-4.7V78.6z"/>
</g>
<polygon class="st1" points="80,45.7 80,16.7 53,31.2 "/>
<g>
	<line class="st0" x1="80" y1="105.7" x2="80" y2="113.7"/>
	<line class="st0" x1="88" y1="105.7" x2="89" y2="110.7"/>
	<line class="st0" x1="96" y1="105.7" x2="97" y2="107.7"/>
	<line class="st0" x1="72" y1="105.7" x2="71" y2="110.7"/>
	<line class="st0" x1="64" y1="105.7" x2="63" y2="107.7"/>
</g>
<g>
	<line class="st0" x1="80" y1="59.7" x2="80" y2="51.7"/>
	<line class="st0" x1="88" y1="59.7" x2="89" y2="54.7"/>
	<line class="st0" x1="96" y1="59.7" x2="97" y2="57.7"/>
	<line class="st0" x1="72" y1="59.7" x2="71" y2="54.7"/>
	<line class="st0" x1="64" y1="59.7" x2="63" y2="57.7"/>
</g>
<path class="st1" d="M80,24.7v12c24.3,0,44,19.7,44,44c0,24.3-19.7,44-44,44s-44-19.7-44-44c0-16.7,9.3-31.3,23.1-38.7l-11.9-6.7
	C33.1,45.5,24,62,24,80.7c0,30.9,25.1,56,56,56s56-25.1,56-56C136,49.7,110.9,24.7,80,24.7z"/>
</svg>
