<?xml version="1.0" encoding="utf-8"?>
<!-- Generator: Adobe Illustrator 16.0.0, SVG Export Plug-In . SVG Version: 6.00 Build 0)  -->
<!DOCTYPE svg PUBLIC "-//W3C//DTD SVG 1.1//EN" "http://www.w3.org/Graphics/SVG/1.1/DTD/svg11.dtd">
<svg version="1.1" id="Layer_2" xmlns="http://www.w3.org/2000/svg" xmlns:xlink="http://www.w3.org/1999/xlink" x="0px" y="0px"
	 width="24px" height="24px" viewBox="0 0 24 24" style="enable-background:new 0 0 24 24;" xml:space="preserve">
<style type="text/css">
<![CDATA[
	.st0{fill:#BD8431;}
]]>
</style>
<g>
	<path class="st0" d="M17,3c0-1.1-0.9-2-2-2c-0.4,0-0.8,0.1-1.1,0.3C13.6,0.6,12.9,0,12,0s-1.6,0.6-1.9,1.3C9.8,1.1,9.4,1,9,1
		C7.9,1,7,1.9,7,3s0.9,2,2,2h6C16.1,5,17,4.1,17,3z"/>
	<path class="st0" d="M0,10v2h8V7H3C1.3,7,0,8.3,0,10z"/>
	<path class="st0" d="M21,7h-5v5h8v-2C24,8.3,22.7,7,21,7z"/>
	<path class="st0" d="M1,21c0,1.7,1.3,3,3,3h4V14H1V21z"/>
	<path class="st0" d="M16,24h4c1.7,0,3-1.3,3-3v-7h-7V24z"/>
	<rect x="10" y="14" class="st0" width="4" height="10"/>
	<rect x="10" y="7" class="st0" width="4" height="5"/>
</g>
</svg>
