<?xml version="1.0" encoding="utf-8"?>
<!-- Generator: Adobe Illustrator 16.0.0, SVG Export Plug-In . SVG Version: 6.00 Build 0)  -->
<!DOCTYPE svg PUBLIC "-//W3C//DTD SVG 1.1//EN" "http://www.w3.org/Graphics/SVG/1.1/DTD/svg11.dtd">
<svg version="1.1" id="Layer_2" xmlns="http://www.w3.org/2000/svg" xmlns:xlink="http://www.w3.org/1999/xlink" x="0px" y="0px"
	 width="18px" height="18px" viewBox="0 0 18 18" style="enable-background:new 0 0 18 18;" xml:space="preserve">
<style type="text/css">
<![CDATA[
	.st0{fill:#FFFFFF;}
]]>
</style>
<path class="st0" d="M17.4,14.6l-14-14C3.1,0.2,2.6,0,2,0C0.9,0,0,0.9,0,2c0,0.6,0.2,1.1,0.6,1.4l14,14c0.4,0.4,0.9,0.6,1.4,0.6
	c1.1,0,2-0.9,2-2C18,15.4,17.8,14.9,17.4,14.6z"/>
<path class="st0" d="M0.6,14.6l14-14C14.9,0.2,15.4,0,16,0c1.1,0,2,0.9,2,2c0,0.6-0.2,1.1-0.6,1.4l-14,14C3.1,17.8,2.6,18,2,18
	c-1.1,0-2-0.9-2-2C0,15.4,0.2,14.9,0.6,14.6z"/>
</svg>
