<?xml version="1.0" encoding="utf-8"?>
<!-- Generator: Adobe Illustrator 16.0.0, SVG Export Plug-In . SVG Version: 6.00 Build 0)  -->
<!DOCTYPE svg PUBLIC "-//W3C//DTD SVG 1.1//EN" "http://www.w3.org/Graphics/SVG/1.1/DTD/svg11.dtd">
<svg version="1.1" id="Layer_1" xmlns="http://www.w3.org/2000/svg" xmlns:xlink="http://www.w3.org/1999/xlink" x="0px" y="0px"
	 width="32px" height="35px" viewBox="0 0 32 35" enable-background="new 0 0 32 35" xml:space="preserve">
<g>
	<g>
		<path fill="#BC8339" d="M17.107,23.818l-0.465-0.463l-0.002,0l-0.087-0.09l-0.093-0.09c-0.254-0.255-0.67-0.255-0.926,0
			l-0.09,0.09l-0.089,0.09l-0.464,0.463c-0.611,0.61-0.611,1.604,0,2.215c0.592,0.591,1.623,0.591,2.214,0.002
			c0.296-0.299,0.46-0.691,0.46-1.109c0-0.206-0.039-0.405-0.117-0.59C17.374,24.144,17.256,23.968,17.107,23.818z"/>
	</g>
	<g>
		<path fill="#BC8339" d="M30.121,8.791L17.137,0.306c-0.626-0.408-1.647-0.408-2.271,0L1.881,8.791
			c-0.626,0.408-1.137,1.352-1.137,2.097v13.223c0,0.746,0.511,1.69,1.137,2.098l12.985,8.484c0.623,0.408,1.645,0.408,2.271,0
			l12.984-8.484c0.626-0.408,1.136-1.352,1.136-2.098V10.888C31.257,10.143,30.747,9.199,30.121,8.791z M12.155,8.052
			c0.212-0.527,0.528-1.003,0.938-1.411c0.406-0.409,0.883-0.725,1.413-0.939c1.018-0.415,2.192-0.416,3.216,0.001
			c0.525,0.213,1.002,0.529,1.41,0.938c0.018,0.019,0.037,0.037,0.054,0.056c0.374,0.39,0.579,0.778,0.579,0.778
			c0.168,0.319,0.032,0.69-0.301,0.825l0,0l-0.523,0.212l-0.525,0.213c-0.332,0.135-0.708,0.052-0.834-0.183c0,0,0,0-0.173-0.176
			c-0.177-0.175-0.381-0.31-0.604-0.401c-0.443-0.179-0.945-0.178-1.38-0.001c-0.229,0.093-0.433,0.228-0.606,0.403
			c-0.177,0.176-0.312,0.379-0.402,0.604c-0.091,0.221-0.136,0.452-0.136,0.691c0,0.238,0.045,0.47,0.136,0.688
			c0.09,0.228,0.226,0.43,0.402,0.605c0.174,0.176,0.378,0.311,0.604,0.402c0.439,0.181,0.941,0.179,1.376,0
			c0.229-0.091,0.434-0.226,0.61-0.402c0.173-0.176,0.173-0.176,0.173-0.176c0.126-0.236,0.502-0.317,0.834-0.182l0,0l0.525,0.211
			l0.523,0.212c0.333,0.136,0.469,0.506,0.301,0.825c0,0-0.205,0.39-0.579,0.778c-0.017,0.02-0.036,0.038-0.054,0.058
			c-0.408,0.407-0.885,0.723-1.416,0.938c-0.508,0.208-1.049,0.312-1.605,0.312s-1.098-0.104-1.607-0.314
			c-0.527-0.213-1.004-0.529-1.41-0.936c-0.41-0.409-0.727-0.885-0.939-1.416c-0.208-0.51-0.313-1.05-0.313-1.605
			C11.841,9.104,11.946,8.564,12.155,8.052z M26.374,23.114c0,0.36-0.293,0.655-0.654,0.655h-1.131
			c-0.362,0-0.653-0.295-0.653-0.655v-6.098c0-0.36-0.238-0.479-0.527-0.265l0,0l-2.584,1.917l-2.582,1.917
			c-0.289,0.214-0.32,0.598-0.062,0.852l0.093,0.096l0.095,0.095v0.001l0.466,0.463c0.745,0.744,1.16,1.731,1.173,2.783
			c0,0.017,0.002,0.034,0.002,0.051c-0.002,1.071-0.417,2.077-1.175,2.833c-0.755,0.755-1.76,1.172-2.831,1.172
			s-2.077-0.416-2.834-1.174c-0.013-0.013-0.024-0.025-0.037-0.038c-1.525-1.565-1.514-4.08,0.037-5.628l0.463-0.464l0,0
			l0.102-0.101l0.099-0.099c0.254-0.256,0.227-0.639-0.062-0.854l-2.588-1.913l-2.587-1.916c-0.29-0.213-0.527-0.095-0.527,0.266
			v6.102c0,0.36-0.295,0.655-0.654,0.655H6.281c-0.359,0-0.655-0.295-0.655-0.655V12.17c0-0.36,0.237-0.48,0.526-0.266l4.666,3.451
			l4.667,3.453c0.289,0.215,0.765,0.215,1.053,0l4.656-3.454l4.656-3.454c0.289-0.213,0.523-0.094,0.523,0.266V23.114z"/>
	</g>
</g>
</svg>
