<?xml version="1.0" encoding="utf-8"?>
<!DOCTYPE svg PUBLIC "-//W3C//DTD SVG 1.1//EN" "http://www.w3.org/Graphics/SVG/1.1/DTD/svg11.dtd">
<svg version="1.1" id="Layer_1" xmlns="http://www.w3.org/2000/svg" xmlns:xlink="http://www.w3.org/1999/xlink" x="0px" y="0px"
	 width="748.4px" height="128.4px" viewBox="0 289.8 748.4 128.4" style="enable-background:new 0 289.8 748.4 128.4;"
	 xml:space="preserve">
<style type="text/css">
<![CDATA[
	.st0{fill:#191A17;}
	.st1{fill:#BC8339;}
]]>
</style>
<g>
	<g>
		<path class="st0" d="M79.3,289.8C63.5,289.8,52,302,52,317.1s11.5,27.3,27.3,27.3c15.8,0,27.3-12.2,27.3-27.3
			S95.1,289.8,79.3,289.8z M79.3,331.5c-7.2,0-13-5.8-13-14.4s5.8-14.4,13-14.4c7.2,0,12.9,5.8,12.9,14.4
			C92.3,325.7,86.5,331.5,79.3,331.5z"/>
	</g>
	<g>
		<path class="st0" d="M160.4,291.2h-8.9c-1.5,0-2.7,1.2-2.7,2.8v18.9c0,1.5,0,2.8-0.1,2.8c-0.1,0-0.8-1-1.6-2.3l-6.7-10l-6.7-9.9
			l0,0c-0.8-1.3-2.8-2.3-4.3-2.3H122c-1.5,0-2.7,1.2-2.7,2.8v46.3c0,1.5,1.2,2.8,2.7,2.8h8.9c1.5,0,2.7-1.2,2.7-2.8v-18.9
			c0-1.5,0-2.8,0.1-2.8c0,0,0.8,1,1.6,2.3l0,0l6.7,9.9l6.7,9.9c0.8,1.3,2.8,2.3,4.3,2.3h7.4c1.5,0,2.8-1.2,2.8-2.8V294
			C163.2,292.5,161.9,291.2,160.4,291.2z"/>
	</g>
	<g>
		<g>
			<path class="st0" d="M27.3,302.7c4,0,8.7,4,8.7,4c0.2,0.1,0.3,0.2,0.5,0.3c-0.4-0.3-1.4-1.1-2.3-1.8
				C34.3,305.2,31.4,302.7,27.3,302.7z"/>
		</g>
		<g>
			<path class="st0" d="M38.3,307.1c0.5-0.2,0.9-0.5,1.2-1l1.2-2C40.1,305.1,39.1,306.3,38.3,307.1z"/>
		</g>
		<g>
			<path class="st0" d="M40.7,304.1l1.7-2.9L40.7,304.1z"/>
		</g>
		<g>
			<path class="st0" d="M36.7,307.1c0,0,0,0,0.3,0.1c-0.2,0-0.3-0.1-0.5-0.2C36.6,307.1,36.6,307.1,36.7,307.1z"/>
		</g>
		<g>
			<polygon class="st0" points="39.4,326.9 39.4,326.9 42.1,330.8 			"/>
		</g>
		<g>
			<path class="st0" d="M37,307.2c0.9,0.2,0.9,0.2,0.9,0.2c0.1-0.1,0.2-0.2,0.3-0.3C37.9,307.3,37.4,307.3,37,307.2z"/>
		</g>
		<g>
			<path class="st0" d="M37.3,326.1c-0.3,0.1-0.6,0.2-0.9,0.5c0,0-5,4.9-9.1,4.9C31.1,331.5,34.5,329.7,37.3,326.1z"/>
		</g>
		<g>
			<path class="st0" d="M44.7,334.6l-2.7-3.9l-2.7-3.9c-0.5-0.7-1.3-1-2.1-0.8c-2.8,3.6-6.3,5.4-10,5.4c-7.2,0-12.9-5.8-12.9-14.4
				c0-8.6,5.8-14.4,12.9-14.4c4,0,6.9,2.5,6.9,2.5c0.9,0.7,1.8,1.5,2.3,1.8c0.2,0.1,0.3,0.1,0.5,0.2c0.4,0.1,0.9,0.1,1.3-0.1
				c0.8-0.8,1.8-2.1,2.4-3l1.7-2.9l1.7-2.9c0.6-1.1,0.3-2.5-0.8-3.1c0,0-9.6-5.3-16-5.3C11.5,289.8,0,301.3,0,317.1
				c0,15.8,11.5,27.3,27.3,27.3c8,0,16.8-6.5,16.8-6.5C45.2,337.1,45.4,335.7,44.7,334.6z"/>
		</g>
	</g>
	<g>
		<g>
			<path class="st0" d="M202.2,302.7c4,0,8.7,4,8.7,4c0.2,0.1,0.3,0.2,0.5,0.3c-0.4-0.3-1.4-1.1-2.3-1.8
				C209.2,305.2,206.3,302.7,202.2,302.7z"/>
		</g>
		<g>
			<path class="st0" d="M213.2,307.1c0.5-0.2,0.9-0.5,1.2-1l2.9-4.9l-1.7,2.9C215,305.1,214,306.3,213.2,307.1z"/>
		</g>
		<g>
			<path class="st0" d="M211.6,307.1c0,0,0,0,0.3,0.1c-0.2,0-0.3-0.1-0.5-0.2C211.5,307.1,211.5,307.1,211.6,307.1z"/>
		</g>
		<g>
			<polygon class="st0" points="219,298.2 219,298.2 217.3,301.2 			"/>
		</g>
		<g>
			<path class="st0" d="M219.6,334.6l-2.6-3.9L219.6,334.6z"/>
		</g>
		<g>
			<path class="st0" d="M212.2,326.1c-0.3,0.1-0.6,0.2-0.9,0.5c0,0-5,4.9-9.1,4.9C206,331.5,209.5,329.7,212.2,326.1z"/>
		</g>
		<g>
			<path class="st0" d="M219.6,334.6l-2.7-3.9l-2.7-3.9c-0.5-0.7-1.3-1-2.1-0.8c-2.8,3.6-6.3,5.4-10,5.4c-7.2,0-12.9-5.8-12.9-14.4
				c0-8.6,5.8-14.4,12.9-14.4c4,0,6.9,2.5,6.9,2.5c0.9,0.7,1.8,1.5,2.3,1.8c0.2,0.1,0.3,0.1,0.5,0.2c0.4,0.1,0.9,0.1,1.3-0.1
				c0.8-0.8,1.8-2.1,2.4-3l1.7-2.9l1.7-2.9c0.6-1.1,0.3-2.5-0.8-3.1c0,0-9.6-5.3-16-5.3c-15.8,0-27.3,11.5-27.3,27.3
				c0,15.8,11.5,27.3,27.3,27.3c8,0,16.8-6.5,16.8-6.5C220.1,337.1,220.3,335.6,219.6,334.6z"/>
		</g>
	</g>
	<g>
		<path class="st0" d="M261.5,321.4c5-2.2,9.3-5.8,9.3-13.7c0-0.3,0-0.6,0-1c-0.5-9.5-8.2-15.6-17.9-15.6h-2.8h-14.6
			c-1.5,0-2.8,1.2-2.8,2.8v46.3c0,1.5,1.2,2.8,2.8,2.8h8.9c1.5,0,2.7-1.2,2.7-2.8v-13.9c0-1.5,0-2.8,0.1-2.8c0,0,0.7,1,1.4,2.3
			c0,0,0,0,0,0.1l4.3,7.3l4.3,7.3l0,0c0.8,1.3,2.6,2.4,4.1,2.4h11c1.5,0,2.1-1,1.3-2.3L261.5,321.4z M250,312.8h-1.4
			c-0.8,0-1.4-1.2-1.4-2.8v-4.6c0-1.5,1.2-2.8,2.8-2.8h0.1c3.9,0,6.5,1.4,6.5,5C256.4,311.3,253.8,312.8,250,312.8z"/>
	</g>
	<g>
		<path class="st0" d="M302.8,304.2h12.5c1.5,0,2.6-1.2,2.4-2.7l-0.4-3.7l-0.4-3.7c-0.2-1.5-1.5-2.7-3.1-2.7h-25.4
			c-1.5,0-2.8,1.2-2.8,2.8v46.3c0,1.5,1.2,2.8,2.8,2.8h25.4c1.5,0,2.9-1.2,3.1-2.7l0.4-3.7l0.4-3.7l0,0c0.2-1.5-0.9-2.7-2.4-2.7
			h-12.5c-1.5,0-2.8-1.2-2.8-2.8V326c0-1.5,1.2-2.7,2.8-2.7h10.3c1.5,0,2.8-1.2,2.8-2.8v-6.7c0-1.5-1.2-2.8-2.8-2.8h-10.3
			c-1.5,0-2.8-1.2-2.8-2.7v-1C300,305.4,301.3,304.2,302.8,304.2z"/>
	</g>
	<g>
		<path class="st0" d="M364.7,297.7l-0.4-3.7c-0.2-1.5-1.5-2.7-3-2.7h-27.6c-1.5,0-2.9,1.2-3.1,2.7l-0.4,3.7l-0.4,3.7
			c-0.2,1.5,0.9,2.7,2.5,2.7h5.3c1.5,0,2.8,1.2,2.8,2.8v33.3c0,1.5,1.2,2.8,2.7,2.8h8.9c1.5,0,2.8-1.2,2.8-2.8v-33.3
			c0-1.5,1.2-2.8,2.7-2.8h5.3c1.5,0,2.6-1.2,2.4-2.7L364.7,297.7z"/>
	</g>
	<g>
		<path class="st0" d="M394.7,304.2h12.5c1.5,0,2.6-1.2,2.5-2.7l-0.4-3.7l-0.4-3.7c-0.2-1.5-1.5-2.7-3.1-2.7h-25.4
			c-1.5,0-2.8,1.2-2.8,2.8v46.3c0,1.5,1.2,2.8,2.8,2.8h25.4c1.5,0,2.9-1.2,3.1-2.7l0.4-3.7l0.4-3.7l0,0c0.2-1.5-0.9-2.7-2.5-2.7
			h-12.5c-1.5,0-2.8-1.2-2.8-2.8V326c0-1.5,1.2-2.7,2.8-2.7H405c1.5,0,2.7-1.2,2.7-2.8v-6.7c0-1.5-1.2-2.8-2.7-2.8h-10.3
			c-1.5,0-2.8-1.2-2.8-2.7v-1C392,305.4,393.2,304.2,394.7,304.2z"/>
	</g>
	<g>
		<path class="st0" d="M502,291.2h-8.9c-1.5,0-3.4,1-4.2,2.3l-5,7.8l-5,7.8c-0.8,1.3-2.2,1.3-3,0l-5-7.8l-5-7.8
			c-0.8-1.3-2.7-2.3-4.2-2.3h-8.9c-1.5,0-2.7,1.2-2.7,2.8v46.3c0,1.5,1.2,2.8,2.7,2.8h8.9c1.5,0,2.8-1.2,2.8-2.8v-21.1
			c0-1.5,0-2.8,0.1-2.8c0,0,0.8,1,1.6,2.2l4.8,6.8l4.8,6.8l0,0c0.9,1.2,2.3,1.2,3.2,0l0,0l4.8-6.8l4.8-6.8c0.9-1.2,1.6-2.2,1.6-2.2
			s0.1,1.2,0.1,2.8v21.1c0,1.5,1.2,2.8,2.8,2.8h8.9c1.5,0,2.7-1.2,2.7-2.8V294C504.8,292.5,503.5,291.2,502,291.2z"/>
	</g>
	<g>
		<path class="st0" d="M565.6,340.4l-8.1-23.3l-8.1-23.3c-0.5-1.4-2.1-2.6-3.6-2.6h-8.9c-1.5,0-3.2,1.2-3.7,2.6l-8.1,23.3l-8.1,23.3
			c-0.5,1.4,0.3,2.6,1.8,2.6h9.6c1.5,0,3.1-1.2,3.6-2.6l0.4-1.3l0.4-1.3c0.4-1.4,2.1-2.6,3.6-2.6h9.7c1.5,0,3.1,1.2,3.6,2.6l0.4,1.3
			l0.4,1.3c0.4,1.4,2,2.6,3.6,2.6h9.6C565.3,343,566.1,341.8,565.6,340.4L565.6,340.4z M542.8,323.6h-3c-1.5,0-2.4-1.2-2-2.6
			l1.3-4.5l1.3-4.6c0.4-1.4,0.8-2.6,0.8-2.6s0.4,1.2,0.8,2.6l1.3,4.6l1.3,4.6C545.2,322.4,544.4,323.6,542.8,323.6z"/>
	</g>
	<g>
		<path class="st0" d="M604.1,297.7l-0.4-3.7l0,0c-0.2-1.5-1.5-2.7-3.1-2.7H573c-1.5,0-2.9,1.2-3.1,2.7l0,0l-0.4,3.7l-0.4,3.7
			c-0.2,1.5,0.9,2.7,2.4,2.7h5.3c1.5,0,2.8,1.2,2.8,2.8v33.3c0,1.5,1.2,2.8,2.7,2.8h8.9c1.5,0,2.7-1.2,2.7-2.8v-33.3
			c0-1.5,1.2-2.8,2.8-2.8h5.3c1.5,0,2.6-1.2,2.4-2.7L604.1,297.7z"/>
	</g>
	<g>
		<path class="st0" d="M648.6,297.7l-0.4-3.7l0,0c-0.2-1.5-1.5-2.7-3.1-2.7h-27.6c-1.5,0-2.9,1.2-3.1,2.7l0,0l-0.4,3.7l-0.4,3.7
			c-0.2,1.5,0.9,2.7,2.4,2.7h5.3c1.5,0,2.7,1.2,2.7,2.8v33.3c0,1.5,1.2,2.8,2.8,2.8h8.9c1.5,0,2.8-1.2,2.8-2.8v-33.3
			c0-1.5,1.2-2.8,2.8-2.8h5.3c1.5,0,2.6-1.2,2.5-2.7L648.6,297.7z"/>
	</g>
	<g>
		<path class="st0" d="M678.6,304.2h12.5c1.5,0,2.6-1.2,2.5-2.7l-0.4-3.7l-0.4-3.7l0,0c-0.2-1.5-1.5-2.7-3-2.7h-25.4
			c-1.5,0-2.8,1.2-2.8,2.8v46.3c0,1.5,1.2,2.8,2.8,2.8h25.4c1.5,0,2.9-1.2,3-2.7l0.4-3.7l0.4-3.7c0.2-1.5-0.9-2.7-2.5-2.7h-12.5
			c-1.5,0-2.8-1.2-2.8-2.8V326c0-1.5,1.2-2.7,2.8-2.7h10.3c1.5,0,2.8-1.2,2.8-2.8v-6.7c0-1.5-1.2-2.8-2.8-2.8h-10.3
			c-1.5,0-2.8-1.2-2.8-2.7v-1C675.8,305.4,677.1,304.2,678.6,304.2z"/>
	</g>
	<g>
		<path class="st0" d="M748,340.7l-12.2-19.2c5-2.2,9.3-5.8,9.3-13.7c0-0.3,0-0.6,0-1c-0.5-9.5-8.2-15.6-17.9-15.6h-2.8h-14.6
			c-1.5,0-2.8,1.2-2.8,2.8v46.3c0,1.5,1.2,2.8,2.8,2.8h8.9c1.5,0,2.8-1.2,2.8-2.8v-13.9c0-1.5,0-2.8,0.1-2.8c0,0,0.7,1,1.4,2.3
			l4.3,7.4l4.3,7.3l0,0c0.8,1.3,2.6,2.4,4.1,2.4h11C748.2,343,748.8,341.9,748,340.7z M724.3,312.8h-1.4c-0.8,0-1.4-1.2-1.4-2.8
			v-4.6c0-1.5,1.2-2.8,2.7-2.8h0.1c3.9,0,6.5,1.4,6.5,5C730.8,311.3,728.1,312.8,724.3,312.8z"/>
	</g>
</g>
<g>
	<path class="st1" d="M146.2,393.2h-3.8l-1,2.9c-0.5,1.4-1.1,2-2.3,2c-1.2,0-2-0.7-2.1-2.1c0-1.9,0-2.7,0-3.7v-0.7
		c0-1.7,0.1-2.3,0.7-2.8c0.5-0.5,1.2-0.8,2.4-0.8h20c1.2,0,1.8,0.3,2.4,0.8c0.5,0.5,0.7,1.1,0.7,2.8v0.7c0,1,0,1.7,0,3.7
		c0,1.4-0.8,2.1-2,2.1c-1.2,0-1.8-0.6-2.3-2l-1-2.9h-3.8v19.5l1.8,0.6c1.4,0.5,2,1.1,2,2.2c0,1.3-0.9,2.2-2.6,2.2h-10.2
		c-1.6,0-2.5-0.9-2.5-2.2c0-1.1,0.6-1.7,2-2.2l1.8-0.6v-19.5H146.2z"/>
</g>
<g>
	<path class="st1" d="M170.3,393.1l-1.4-0.5c-1.5-0.6-2.2-1.3-2.2-2.6c0-1.1,0.8-1.9,2.3-1.9h9.6c1.5,0,2.3,0.8,2.3,1.9
		c0,1.3-0.5,2-2,2.7l-1.1,0.4v7.1H188v-7.1l-1-0.4c-1.5-0.7-2-1.5-2-2.7c0-1.1,0.8-1.9,2.2-1.9h9.6c1.4,0,2.2,0.8,2.2,1.9
		c0,1.3-0.6,2.1-2.1,2.6l-1.4,0.5v19.6l1.6,0.6c1.5,0.5,1.9,1.1,1.9,2.2c0,1.3-0.9,2.2-2.5,2.2h-9.1c-1.6,0-2.5-0.9-2.5-2.2
		c0-1.1,0.5-1.7,1.9-2.3l1.1-0.4v-7.5h-10.2v7.5l1.1,0.4c1.4,0.7,1.9,1.2,1.9,2.3c0,1.3-1,2.2-2.6,2.2H169c-1.6,0-2.6-0.9-2.6-2.2
		c0-1.1,0.5-1.7,1.9-2.2l1.6-0.6v-19.6H170.3z"/>
</g>
<g>
	<path class="st1" d="M206.5,393.1l-1.4-0.5c-1.5-0.6-2.2-1.3-2.2-2.6c0-1.1,0.8-1.9,2.3-1.9H223c1.2,0,1.8,0.3,2.4,0.8
		c0.5,0.5,0.7,1.1,0.7,2.8v0.4c0,0.9,0,1.4,0,2.3c0,1.5-0.9,2.1-2.1,2.1s-1.9-0.6-2.4-1.8L221,393h-6.8v7.7h4.9l0.4-1.1
		c0.4-1.1,1.1-1.5,2.1-1.5c1.2,0,1.9,0.7,1.9,2.1v5.1c0,1.4-0.7,2.1-1.9,2.1c-1,0-1.6-0.5-2-1.5l-0.4-1.1h-4.9v7.9h7.4l0.7-2
		c0.4-1.2,1.1-1.8,2.3-1.8c1.3,0,2.1,0.6,2.2,2.1c0,1.1,0,1.3,0,2.3v0.7c0,1.7-0.1,2.2-0.7,2.8c-0.5,0.5-1.2,0.8-2.4,0.8h-18.2
		c-1.6,0-2.6-0.9-2.6-2.2c0-1.1,0.5-1.7,1.9-2.2l1.6-0.6V393.1z"/>
</g>
<g>
	<path class="st1" d="M249.2,393l-1-0.4c-1.5-0.6-2.2-1.4-2.2-2.7c0-1.1,0.8-1.9,2.2-1.9h8.8c1.7,0,2.6,0.7,3,2.2l4.4,15.8
		c0.7,2.6,1,5,1,5h0.1c0,0,0.3-2.4,1-5l4.3-15.8c0.4-1.5,1.3-2.2,3-2.2h9c1.5,0,2.2,0.8,2.2,1.9c0,1.3-0.6,2.1-2.1,2.7l-1,0.4
		l2.4,19.7l1,0.5c1.3,0.7,1.8,1.1,1.8,2.2c0,1.3-0.9,2.2-2.5,2.2h-8.2c-1.6,0-2.6-0.9-2.6-2.2c0-1,0.5-1.6,1.8-2.4l0.8-0.4l-1.1-12
		c-0.3-2.7-0.4-6-0.4-6h-0.1l-5.2,18.8c-0.8,3.2-2.1,4.4-5,4.4c-2.8,0-4.1-1.1-4.9-4.4l-5.1-18.8h-0.1c0,0-0.1,3.3-0.4,6l-1.1,12
		l0.8,0.4c1.3,0.8,1.9,1.4,1.9,2.4c0,1.3-1,2.2-2.6,2.2h-6.6c-1.6,0-2.5-0.9-2.5-2.2c0-1.1,0.5-1.6,1.7-2.2l1.1-0.5L249.2,393z"/>
</g>
<g>
	<path class="st1" d="M300.2,392.2c1.1-3.2,2.7-4.3,6.1-4.3c3.3,0,4.9,1.1,6,4.3l7.3,20.5l1.1,0.5c1.2,0.7,1.7,1.1,1.7,2.2
		c0,1.3-0.9,2.2-2.5,2.2h-8.6c-1.6,0-2.5-0.9-2.5-2.2c0-1.1,0.5-1.6,1.9-2.3l1-0.4l-1-3h-10.2l-1.1,3l1,0.4c1.4,0.7,1.9,1.2,1.9,2.3
		c0,1.3-1,2.2-2.6,2.2h-7.1c-1.6,0-2.5-0.9-2.5-2.2c0-1.1,0.5-1.6,1.8-2.2l1.1-0.5L300.2,392.2z M309.3,405.5l-2.1-6.3
		c-0.8-2.5-1.5-5.3-1.5-5.3h-0.1c0,0-0.8,2.7-1.6,5.3l-2.1,6.3H309.3z"/>
</g>
<g>
	<path class="st1" d="M329.2,393.1l-1.4-0.5c-1.5-0.6-2.2-1.3-2.2-2.6c0-1.1,0.8-1.9,2.3-1.9h6.8c1.8,0,2.8,0.5,3.8,2.1l8.4,12.9
		c1.7,2.6,3.3,5.9,3.3,5.9h0.1c0,0-0.4-3.6-0.5-6.6l-0.1-9.2l-1.4-0.5c-1.5-0.6-2.2-1.3-2.2-2.6c0-1.1,0.8-1.9,2.2-1.9h8.4
		c1.5,0,2.2,0.8,2.2,1.9c0,1.3-0.5,2-2.1,2.6l-1.2,0.4v20.7c0,2.6-1.5,4.1-4.6,4.1c-2.3,0-3.7-0.8-4.9-2.6l-8.1-12.6
		c-1.7-2.7-3.3-5.9-3.3-5.9h-0.1c0,0,0.4,3.6,0.5,6.6l0.1,9.3l1.6,0.6c1.4,0.5,2,1.1,2,2.2c0,1.3-0.9,2.2-2.5,2.2h-8.1
		c-1.6,0-2.6-0.9-2.6-2.2c0-1.1,0.5-1.7,1.9-2.2l1.6-0.6v-19.6H329.2z"/>
</g>
<g>
	<path class="st1" d="M369,380.8c2.5,0,4.3,1.9,4.3,5.1c0,4.2-3.2,8.7-5.5,10.1c-0.8,0.5-1.5,0.7-2.5,0.7c-0.8,0-1.5-0.6-1.5-1.5
		c0-1.5,2.1-2.1,3.2-6c-1.1-0.6-2.4-1.8-2.4-3.9C364.6,382.8,366.5,380.8,369,380.8z"/>
</g>
<g>
	<path class="st1" d="M391.7,393.2c0,0-1.2-0.6-3.5-0.6c-2.7,0-3.8,1.1-3.8,2.6c0,5.5,13.6,3.2,13.6,13.5c0,5.4-4,9.5-12.5,9.5
		c-4,0-6.4-0.8-7.4-1.7c-0.7-0.7-0.9-1.4-0.9-3.4v-0.5c0-1.1,0-1.5,0-2.4c0.1-1.5,0.9-2.1,2.1-2.1s1.9,0.6,2.4,1.9l0.9,2.6
		c0,0,1.3,0.7,3.8,0.7c2.7,0,4.1-1.3,4.1-3.1c0-5.8-13.6-3.5-13.6-13.6c0-5,3.9-8.9,12.3-8.9c3.7,0,6,0.7,6.9,1.6
		c0.7,0.8,0.9,1.4,0.9,3.4v0.4c0,1,0,1.4,0,2.3c-0.1,1.5-0.9,2.1-2.1,2.1c-1.2,0-1.9-0.6-2.4-1.9L391.7,393.2z"/>
</g>
<g>
	<path class="st1" d="M436.8,393.5c0,0-1-0.5-3.3-0.5c-5.2,0-8.6,3.4-8.6,9.8c0,6.8,3.5,10.3,9.1,10.3c1.4,0,2-0.2,2-0.2V407
		l-2.6-0.8c-1.5-0.4-2.2-1.2-2.2-2.4c0-1,0.8-1.9,2.2-1.9h7.4c1.6,0,2.4,0.8,2.4,2.4v7.8c0,2-0.7,2.9-1.8,3.7
		c-1.1,0.8-3.7,2.3-9.4,2.3c-9.7,0-15.3-5.6-15.3-14.6c0-9.3,6.6-15.9,17.7-15.9c4,0,6.3,0.8,7.2,1.7c0.7,0.7,0.9,1.4,0.9,3.6v0.5
		c0,1.3,0,1.9,0,3c0,1.5-0.8,2.1-2.1,2.1c-1.2,0-1.9-0.6-2.5-1.9L436.8,393.5z"/>
</g>
<g>
	<path class="st1" d="M452.3,393.1l-1.4-0.5c-1.5-0.6-2.2-1.3-2.2-2.6c0-1.1,0.8-1.9,2.3-1.9h10.2c1.4,0,2.2,0.8,2.2,1.9
		c0,1.3-0.6,2-2.1,2.6l-1.4,0.5v19.6l1.6,0.6c1.4,0.5,1.9,1.1,1.9,2.2c0,1.3-0.9,2.2-2.5,2.2h-9.6c-1.6,0-2.6-0.9-2.6-2.2
		c0-1.1,0.5-1.7,1.9-2.2l1.6-0.6L452.3,393.1L452.3,393.1z"/>
</g>
<g>
	<path class="st1" d="M470.8,393.1l-1.4-0.5c-1.5-0.6-2.2-1.3-2.2-2.6c0-1.1,0.8-1.9,2.3-1.9H487c1.2,0,1.9,0.3,2.4,0.8
		s0.7,1.1,0.7,2.8v0.6c0,0.8,0,1.4,0,2.3c0,1.5-0.9,2.1-2.1,2.1s-1.9-0.6-2.4-1.8l-0.7-1.8h-6.5v8h4.4l0.4-1.1
		c0.4-1.1,1.1-1.5,2-1.5c1.2,0,2,0.7,2,2.2v5.2c0,1.5-0.8,2.1-2,2.1c-1,0-1.6-0.4-2-1.4l-0.4-1.1h-4.4v7.3l1.9,0.6
		c1.4,0.5,2,1.1,2,2.2c0,1.3-0.9,2.2-2.5,2.2h-10c-1.6,0-2.6-0.9-2.6-2.2c0-1.1,0.5-1.7,1.9-2.2l1.6-0.6L470.8,393.1L470.8,393.1z"
		/>
</g>
<g>
	<path class="st1" d="M502.8,393.2H499l-1,2.9c-0.5,1.4-1.1,2-2.3,2s-2-0.7-2.1-2.1c0-1.9,0-2.7,0-3.7v-0.7c0-1.7,0.1-2.3,0.7-2.8
		c0.5-0.5,1.2-0.8,2.4-0.8h20c1.2,0,1.9,0.3,2.4,0.8s0.7,1.1,0.7,2.8v0.7c0,1,0,1.7,0,3.7c0,1.4-0.8,2.1-2,2.1s-1.8-0.6-2.3-2
		l-1-2.9h-3.8v19.5l1.8,0.6c1.4,0.5,2,1.1,2,2.2c0,1.3-0.9,2.2-2.6,2.2h-10.2c-1.6,0-2.5-0.9-2.5-2.2c0-1.1,0.6-1.7,2-2.2l1.8-0.6
		v-19.5H502.8z"/>
</g>
<g>
	<path class="st1" d="M554.5,393.4c0,0-0.6-0.3-1.8-0.3c-4.1,0-7.4,3.2-7.4,9.9c0,6.3,3.3,9.6,8.1,9.6c2.8,0,4.1-0.8,5.1-0.8
		c1.2,0,1.9,0.7,1.9,2c0,0.8-0.3,1.4-0.8,2c-1.1,1.1-3.9,2.5-8.2,2.5c-8.6,0-14-5.4-14-14.2c0-9.7,6.6-16.2,16-16.2
		c3.2,0,5.2,0.6,6.1,1.5c0.8,0.7,0.9,1.4,0.9,3.7v0.6c0,1.3,0,2,0,3.3c0,1.4-0.8,2.1-2.1,2.1c-1.2,0-1.9-0.6-2.4-2L554.5,393.4z"/>
</g>
<g>
	<path class="st1" d="M580.9,387.6c8.8,0,14.3,5.5,14.3,14.7c0,9.7-6.2,15.9-15.6,15.9c-8.8,0-14.3-5.5-14.3-14.6
		C565.3,393.9,571.6,387.6,580.9,387.6z M580.4,412.8c3.8,0,6.9-3.1,6.9-9.8c0-6.8-3.3-10-7.1-10s-6.9,3.1-6.9,9.8
		C573.3,409.6,576.5,412.8,580.4,412.8z"/>
</g>
<g>
	<path class="st1" d="M603.9,409.2c2.6,0,4.4,1.8,4.4,4.4s-1.9,4.6-4.5,4.6c-2.6,0-4.5-1.8-4.5-4.5
		C599.3,411.1,601.3,409.2,603.9,409.2z"/>
</g>
</svg>
