<?xml version="1.0" encoding="utf-8"?>
<!-- Generator: Adobe Illustrator 16.0.0, SVG Export Plug-In . SVG Version: 6.00 Build 0)  -->
<!DOCTYPE svg PUBLIC "-//W3C//DTD SVG 1.1//EN" "http://www.w3.org/Graphics/SVG/1.1/DTD/svg11.dtd">
<svg version="1.1" id="Layer_2" xmlns="http://www.w3.org/2000/svg" xmlns:xlink="http://www.w3.org/1999/xlink" x="0px" y="0px"
	 width="24px" height="24px" viewBox="0 0 24 24" enable-background="new 0 0 24 24" xml:space="preserve">
<path fill="#BC8339" d="M21,6c1.104,0,2-0.896,2-2s-0.896-2-2-2H3C1.896,2,1,2.896,1,4s0.896,2,2,2H21z"/>
<path fill="#BC8339" d="M21,14c1.104,0,2-0.896,2-2s-0.896-2-2-2H3c-1.104,0-2,0.896-2,2s0.896,2,2,2H21z"/>
<path fill="#BC8339" d="M21,22c1.104,0,2-0.896,2-2s-0.896-2-2-2H3c-1.104,0-2,0.896-2,2s0.896,2,2,2H21z"/>
</svg>
