<?xml version="1.0" encoding="utf-8"?>
<!-- Generator: Adobe Illustrator 16.0.0, SVG Export Plug-In . SVG Version: 6.00 Build 0)  -->
<!DOCTYPE svg PUBLIC "-//W3C//DTD SVG 1.1//EN" "http://www.w3.org/Graphics/SVG/1.1/DTD/svg11.dtd">
<svg version="1.1" id="Layer_2" xmlns="http://www.w3.org/2000/svg" xmlns:xlink="http://www.w3.org/1999/xlink" x="0px" y="0px"
	 width="12px" height="12px" viewBox="0 0 12 12" style="enable-background:new 0 0 12 12;" xml:space="preserve">
<style type="text/css">
<![CDATA[
	.st0{fill:#BC8339;}
]]>
</style>
<path class="st0" d="M11.2,1.6l-4.8-1c-0.1,0-0.3,0-0.4,0s-0.3,0-0.4,0l-4.8,1C0.3,1.7,0,2.1,0,2.6s0.3,0.9,0.8,1l4.8,1
	c0.1,0,0.3,0,0.4,0s0.3,0,0.4,0l4.8-1c0.5-0.1,0.8-0.5,0.8-1S11.7,1.7,11.2,1.6z"/>
<g>
	<path class="st0" d="M5,6.5L0.4,5.6C0.3,5.5,0.1,5.5,0,5.4v4.2c0,0.5,0.3,0.9,0.8,1L5,11.5V6.5z"/>
	<path class="st0" d="M11.6,5.6L7,6.5v5l4.2-0.9c0.5-0.1,0.8-0.5,0.8-1V5.4C11.9,5.5,11.7,5.5,11.6,5.6z"/>
</g>
</svg>
